<?xml version="1.0" encoding="UTF-8"?>
<svg id="_圖層_2" data-name="圖層 2" xmlns="http://www.w3.org/2000/svg" viewBox="0 0 199.96 210.92">
  <defs>
    <style>
      .cls-1 {
        stroke-linecap: round;
        stroke-linejoin: round;
        stroke-width: 3px;
      }

      .cls-1, .cls-2 {
        fill: none;
        stroke: #000;
      }

      .cls-2 {
        stroke-miterlimit: 10;
        stroke-width: 2px;
      }
    </style>
  </defs>
  <g id="_圖層_3" data-name="圖層 3">
    <path d="M153.78,48.8c-4.95-10.42-16.74-15.17-26.34-10.61s-13.36,16.7-8.41,27.12c4.95,10.42,16.74,15.17,26.34,10.61,9.6-4.56,13.36-16.7,8.41-27.12ZM143.71,72.43c-7.82,3.72-17.43-.16-21.47-8.65-4.03-8.49-.96-18.39,6.86-22.1,7.82-3.72,17.43.16,21.47,8.65s.96,18.39-6.86,22.1Z"/>
    <path d="M199.83,102.23c-.76-15.45-2.36-48.06-28.69-74.13C143.35.61,107.8-.04,99.98,0c-7.81-.04-43.37.6-71.16,28.1C2.49,54.16.89,86.77.13,102.23c-.34,6.96-2.34,63.54,34.07,91.46,13.44,10.31,28.66,14.06,29.89,14.35,15.57,3.69,35.51,2.79,35.89,2.78.37.02,20.32.91,35.89-2.78,1.23-.29,16.45-4.04,29.89-14.35,36.42-27.92,34.42-84.51,34.07-91.46ZM17.61,156.96c-3.73-5.67-5.65-10.61-6.2-12.07-1.62-4.32-2.29-7.76-2.84-10.7,0,0-2.21-10.74.88-16.03.56-.96,1.22-1.13,1.22-1.13,0,0,.55-.12,1.19.27,2.31,1.42,1.83,8.36,1.79,13.22-.11,16.01,3.96,26.43,3.96,26.43h0ZM22.57,146.03s-2.6-10.85,1.06-16.03c.68-.96,1.48-1.13,1.48-1.13,0,0,.67-.12,1.45.27,2.8,1.42,2.21,8.36,2.17,13.22-.14,16.01,4.8,26.43,4.8,26.43,0,0-7.93-10.11-10.97-22.77ZM41.61,158.48s-3.34-12.63,1.37-18.66c.87-1.12,1.9-1.31,1.9-1.31,0,0,.86-.14,1.86.32,3.59,1.65,2.84,9.74,2.78,15.39-.18,18.64,6.16,30.78,6.16,30.78,0,0-10.17-11.77-14.07-26.51ZM159.19,158.48c-3.9,14.74-14.07,26.51-14.07,26.51,0,0,6.33-12.14,6.16-30.78-.05-5.65-.81-13.73,2.78-15.39,1-.46,1.86-.32,1.86-.32,0,0,1.03.19,1.9,1.31,4.71,6.03,1.37,18.66,1.37,18.66ZM156.44,127.77c-.54.07-1.04.12-1.58.13-11.25.28-15.78-2.89-31.29-6.11-4.43-.92-7.64-1.37-8.66-1.5-6.31-.85-11.52-1.03-14.93-1.05-3.41.02-8.62.2-14.93,1.05-1.03.14-4.23.59-8.66,1.5-15.51,3.22-20.04,6.38-31.29,6.11-.54-.01-1.03-.06-1.58-.13-11.5-1.46-19.29-10.03-20.85-11.83-16.17-18.74-7.63-58.14,13.18-81.08C59.15,9.18,93.16,9.28,99.98,9.44c6.82-.16,40.83-.26,64.13,25.41,20.81,22.94,29.35,62.34,13.18,81.08-1.55,1.8-9.34,10.37-20.85,11.83ZM178.23,146.03c-3.04,12.66-10.97,22.77-10.97,22.77,0,0,4.94-10.43,4.8-26.43-.04-4.86-.63-11.8,2.17-13.22.78-.39,1.45-.27,1.45-.27,0,0,.81.17,1.48,1.13,3.67,5.18,1.06,16.03,1.06,16.03ZM192.24,134.19c-.55,2.94-1.22,6.38-2.84,10.7-.55,1.46-2.48,6.4-6.2,12.07h0s4.07-10.43,3.96-26.43c-.03-4.86-.52-11.8,1.79-13.22.64-.39,1.19-.27,1.19-.27,0,0,.66.17,1.22,1.13,3.09,5.29.88,16.03.88,16.03Z"/>
    <ellipse class="cls-2" cx="57.94" cy="57.05" rx="20.89" ry="19.24" transform="translate(-18.45 84.9) rotate(-64.59)"/>
    <ellipse cx="57.94" cy="57.05" rx="17.02" ry="15.68" transform="translate(-18.45 84.9) rotate(-64.59)"/>
  </g>
  <g id="_圖層_4" data-name="圖層 4">
    <path class="cls-1" d="M55.68,26.37c4.96.55,12.84,2.22,20.18,7.83,1.72,1.31,3.2,2.68,4.47,4.03"/>
    <path class="cls-1" d="M139.45,26.37c-4.96.55-12.84,2.22-20.18,7.83-1.72,1.31-3.2,2.68-4.47,4.03"/>
  </g>
</svg>