<?xml version="1.0" encoding="UTF-8"?>
<svg id="_圖層_2" data-name="圖層 2" xmlns="http://www.w3.org/2000/svg" viewBox="0 0 306.17 310.1">
  <defs>
    <style>
      .cls-1 {
        fill: none;
        stroke: currentColor;
        stroke-linecap: round;
        stroke-linejoin: round;
        stroke-width: 3px;
      }
    </style>
  </defs>
  <g id="_圖層_4" data-name="圖層 4">
    <path class="cls-1" d="M148.74,130.75c1.34-.24,2.72-.37,4.13-.37s2.79.13,4.13.37l17.09-96.93s.86-5.16,1.5-8.51c0-13.15-10.18-23.82-22.73-23.82s-22.73,10.66-22.73,23.82c0,0,1.14,6.32,1.5,8.51l17.09,96.93Z"/>
    <path class="cls-1" d="M157.32,130.73c1.34.24,2.68.59,4.01,1.07s2.58,1.08,3.76,1.76l49.21-85.23s2.57-4.55,4.32-7.49c4.5-12.36-1.42-25.86-13.21-30.15-11.79-4.29-25,2.25-29.5,14.61,0,0-1.09,6.33-1.5,8.51l-17.09,96.93Z"/>
    <path class="cls-1" d="M165.38,133.65c1.18.68,2.32,1.47,3.4,2.38s2.05,1.89,2.93,2.94l75.39-63.26s3.98-3.4,6.62-5.56c8.45-10.08,7.51-24.78-2.1-32.85-9.62-8.07-24.26-6.44-32.72,3.64,0,0-3.18,5.57-4.32,7.49l-49.21,85.23Z"/>
    <path class="cls-1" d="M171.96,139.14c.88,1.05,1.68,2.18,2.38,3.4s1.28,2.48,1.75,3.76l92.48-33.66s4.9-1.83,8.12-2.96c11.39-6.58,15.54-20.72,9.26-31.59-6.28-10.87-20.6-14.35-31.99-7.77,0,0-4.9,4.15-6.62,5.56l-75.39,63.26Z"/>
    <path class="cls-1" d="M176.26,146.55c.47,1.28.83,2.62,1.08,4.01s.36,2.77.36,4.14h98.42s5.23-.05,8.64,0c12.95-2.28,21.69-14.16,19.51-26.52-2.18-12.36-14.45-20.53-27.4-18.25,0,0-6.02,2.22-8.12,2.96l-92.48,33.66Z"/>
    <path class="cls-1" d="M177.77,154.99c0,1.36-.11,2.75-.36,4.14s-.61,2.73-1.08,4.01l92.48,33.66s4.93,1.74,8.12,2.96c12.95,2.28,25.22-5.88,27.4-18.25,2.18-12.36-6.55-24.23-19.51-26.52,0,0-6.42.03-8.64,0h-98.42Z"/>
    <path class="cls-1" d="M176.3,163.44c-.47,1.28-1.05,2.54-1.75,3.76s-1.51,2.35-2.38,3.4l75.39,63.26s4.04,3.32,6.62,5.56c11.39,6.58,25.71,3.1,31.99-7.77,6.28-10.87,2.13-25.01-9.26-31.59,0,0-6.04-2.17-8.12-2.96l-92.48-33.66Z"/>
    <path class="cls-1" d="M172.03,170.87c-.88,1.04-1.85,2.03-2.93,2.94s-2.22,1.69-3.4,2.38l49.21,85.23s2.66,4.5,4.32,7.49c8.45,10.08,23.1,11.7,32.72,3.64,9.62-8.07,10.56-22.78,2.1-32.85,0,0-4.93-4.1-6.62-5.56l-75.39-63.26Z"/>
    <path class="cls-1" d="M165.48,176.4c-1.18.68-2.43,1.27-3.76,1.76s-2.67.83-4.01,1.07l17.09,96.93s.95,5.14,1.5,8.51c4.5,12.36,17.71,18.9,29.5,14.61,11.79-4.29,17.71-17.79,13.21-30.15,0,0-3.23-5.54-4.32-7.49l-49.21-85.23Z"/>
    <path class="cls-1" d="M157.43,179.35c-1.34.24-2.72.37-4.13.37s-2.79-.13-4.13-.37l-17.09,96.93s-.86,5.16-1.5,8.51c0,13.15,10.18,23.82,22.73,23.82s22.73-10.66,22.73-23.82c0,0-1.14-6.32-1.5-8.51l-17.09-96.93Z"/>
    <path class="cls-1" d="M148.86,179.37c-1.34-.24-2.68-.59-4.01-1.07s-2.58-1.08-3.76-1.76l-49.21,85.23s-2.57,4.55-4.32,7.49c-4.5,12.36,1.42,25.86,13.21,30.15,11.79,4.29,25-2.25,29.5-14.61,0,0,1.09-6.33,1.5-8.51l17.09-96.93Z"/>
    <path class="cls-1" d="M140.8,176.45c-1.18-.68-2.32-1.47-3.4-2.38s-2.05-1.89-2.93-2.94l-75.39,63.26s-3.98,3.4-6.62,5.56c-8.45,10.08-7.51,24.78,2.1,32.85,9.62,8.07,24.26,6.44,32.72-3.64,0,0,3.18-5.57,4.32-7.49l49.21-85.23Z"/>
    <path class="cls-1" d="M134.22,170.96c-.88-1.05-1.68-2.18-2.38-3.4s-1.28-2.48-1.75-3.76l-92.48,33.66s-4.9,1.83-8.12,2.96c-11.39,6.58-15.54,20.72-9.26,31.59,6.28,10.87,20.6,14.35,31.99,7.77,0,0,4.9-4.15,6.62-5.56l75.39-63.26Z"/>
    <path class="cls-1" d="M129.91,163.55c-.47-1.28-.83-2.62-1.08-4.01s-.36-2.77-.36-4.14H30.06s-5.23.05-8.64,0c-12.95,2.28-21.69,14.16-19.51,26.52,2.18,12.36,14.45,20.53,27.4,18.25,0,0,6.02-2.22,8.12-2.96l92.48-33.66Z"/>
    <path class="cls-1" d="M128.41,155.11c0-1.36.11-2.75.36-4.14s.61-2.73,1.08-4.01l-92.48-33.66s-4.93-1.74-8.12-2.96c-12.95-2.28-25.22,5.88-27.4,18.25-2.18,12.36,6.55,24.23,19.51,26.52,0,0,6.42-.03,8.64,0h98.42Z"/>
    <path class="cls-1" d="M129.87,146.66c.47-1.28,1.05-2.54,1.75-3.76s1.51-2.35,2.38-3.4l-75.39-63.26s-4.04-3.32-6.62-5.56c-11.39-6.58-25.71-3.1-31.99,7.77s-2.13,25.01,9.26,31.59c0,0,6.04,2.17,8.12,2.96l92.48,33.66Z"/>
    <path class="cls-1" d="M134.14,139.23c.88-1.04,1.85-2.03,2.93-2.94s2.22-1.69,3.4-2.38l-49.21-85.23s-2.66-4.5-4.32-7.49c-8.45-10.08-23.1-11.7-32.72-3.64s-10.56,22.78-2.1,32.85c0,0,4.93,4.1,6.62,5.56l75.39,63.26Z"/>
    <path class="cls-1" d="M140.7,133.7c1.18-.68,2.43-1.27,3.76-1.76s2.67-.83,4.01-1.07l-17.09-96.93s-.95-5.14-1.5-8.51c-4.5-12.36-17.71-18.9-29.5-14.61s-17.71,17.79-13.21,30.15c0,0,3.23,5.54,4.32,7.49l49.21,85.23Z"/>
  </g>
</svg>